#!OML:ASF X:\für Bonn\!DataBase\2005_08_12_Daniel\c3d\Daniel.ASF
:FULLY-SPECIFIED
:DEGREES
109
root 3.91517 17.1032 -0.252658 -837.237 -75.4279 786.015
lowerback 54.501 7.02426 -0.0931537
upperback 13.355 3.79137 -9.99821
thorax -5.70785 1.10674 -12.5202
lowerneck 12.3038 5.00579 -0.126682
upperneck 24.9734 3.64219 9.95712
head 5.3977 1.70592 3.19682
rclavicle 3.65764e-014 -4.77083e-014
rhumerus -38.0311 10.1739 -88.3547
rradius 79.4355
rwrist -5.56739
rhand -32.8129 21.1506
rfingers 7.12502
rthumb -6.03355 -8.74351
lclavicle 3.65764e-014 -4.77083e-014
lhumerus -50.4845 29.8738 65.0404
lradius 120.716
lwrist 210.335
lhand -8.02292 14.4036
lfingers 7.12502
lthumb 17.8868 43.6011
rfemur 44.1818 7.40794 11.7449
rtibia 14.0425
rfoot -7.12074 -1.78504
rtoes -4.97417
lfemur -74.6321 5.4263 -22.2116
ltibia 51.8911
lfoot -5.84482 5.48495
ltoes -17.0495
110
root 3.86513 17.0609 -0.252756 -836.224 -75.3601 785.285
lowerback 54.0014 6.99589 -0.0767719
upperback 13.5074 3.83394 -9.99164
thorax -5.48382 1.14188 -12.5131
lowerneck 12.4819 5.46208 -0.159292
upperneck 25.4918 4.068 10.5605
head 5.4956 1.92812 3.40734
rclavicle -7.95139e-016 -1.54257e-013
rhumerus -37.9549 9.68218 -89.274
rradius 78.0702
rwrist -5.8079
rhand -32.6229 21.4141
rfingers 7.12502
rthumb -5.85014 -8.48512
lclavicle -7.95139e-016 -1.54257e-013
lhumerus -49.6027 29.056 65.8882
lradius 121.09
lwrist 211.012
lhand -7.63293 14.7835
lfingers 7.12502
lthumb 18.262 43.9463
rfemur 42.6194 6.99187 11.3405
rtibia 16.6693
rfoot -8.47337 -1.56796
rtoes -5.07674
lfemur -75.4417 6.0723 -23.4423
ltibia 55.3216
lfoot -3.37073 6.58315
ltoes -15.4607
111
root 3.81778 17.016 -0.253042 -835.074 -75.3158 784.508
lowerback 53.4361 6.92631 -0.0407678
upperback 13.6546 3.84721 -9.99119
thorax -5.26277 1.1656 -12.5081
lowerneck 12.6533 5.88374 -0.183263
upperneck 25.9828 4.46997 11.0487
head 5.58917 2.135 3.57951
rclavicle -1.39149e-014 9.38264e-014
rhumerus -37.8361 9.22909 -90.1353
rradius 76.6448
rwrist -5.84312
rhand -32.4306 21.6213
rfingers 7.12502
rthumb -5.66447 -8.28298
lclavicle -1.39149e-014 9.38264e-014
lhumerus -48.6526 28.1331 66.6837
lradius 121.464
lwrist 211.428
lhand -7.29421 15.312
lfingers 7.12502
lthumb 18.5878 44.444
rfemur 41.0751 6.64121 11.0659
rtibia 19.1191
rfoot -9.75567 -1.46791
rtoes -5.26671
lfemur -76.2076 6.61146 -24.5688
ltibia 58.8168
lfoot -0.700897 7.66544
ltoes -14.3945
112
root 3.7798 16.9793 -0.256679 -833.515 -75.2662 783.413
lowerback 52.6685 6.85331 -0.0789542
upperback 13.8507 3.84534 -9.95619
thorax -4.96806 1.18084 -12.4119
lowerneck 12.9692 6.2682 -0.161417
upperneck 26.3823 4.85478 11.4088
head 5.6376 2.32517 3.69674
rclavicle -4.25399e-014 2.22639e-014
rhumerus -37.7023 8.83308 -90.9235
rradius 75.2012
rwrist -5.56584
rhand -32.3455 21.7759
rfingers 7.12502
rthumb -5.58233 -8.13055
lclavicle -4.25399e-014 2.22639e-014
lhumerus -47.6392 27.1561 67.3872
lradius 121.859
lwrist 211.605
lhand -7.09694 15.8909
lfingers 7.12502
lthumb 18.7776 45.0045
rfemur 39.6221 6.31763 10.8927
rtibia 21.2328
rfoot -10.8793 -1.54992
rtoes -5.60089
lfemur -76.9295 7.00108 -25.612
ltibia 62.3276
lfoot 1.99873 8.59322
ltoes -13.9461
113
root 3.75018 16.954 -0.263865 -831.604 -75.2325 782.057
lowerback 51.8238 6.7592 -0.153688
upperback 14.0367 3.81315 -9.90829
thorax -4.67753 1.18054 -12.2689
lowerneck 13.1999 6.63729 -0.176135
upperneck 26.81 5.20971 11.7816
head 5.70683 2.50184 3.82731
rclavicle 8.74653e-014 -3.33958e-014
rhumerus -37.6095 8.54446 -91.6682
rradius 73.8302
rwrist -5.07574
rhand -32.3545 21.8581
rfingers 7.12502
rthumb -5.59105 -8.04817
lclavicle 8.74653e-014 -3.33958e-014
lhumerus -46.5612 26.153 68.0013
lradius 122.299
lwrist 211.602
lhand -7.0843 16.4798
lfingers 7.12502
lthumb 18.7897 45.5923
rfemur 38.2751 6.02177 10.8507
rtibia 22.9826
rfoot -11.8563 -1.81687
rtoes -6.00162
lfemur -77.6575 7.24464 -26.5053
ltibia 65.8411
lfoot 4.87977 8.95944
ltoes -14.3349
114
root 3.72777 16.9374 -0.273941 -829.365 -75.2158 780.452
lowerback 50.8928 6.64539 -0.257574
upperback 14.2303 3.75809 -9.83592
thorax -4.3664 1.16801 -12.0713
lowerneck 13.4012 6.95666 -0.10933
upperneck 27.2009 5.54139 11.978
head 5.78088 2.66799 3.88666
rclavicle 3.57812e-014 -2.06736e-014
rhumerus -37.5604 8.35397 -92.3512
rradius 72.5506
rwrist -4.36447
rhand -32.5034 21.9288
rfingers 7.12502
rthumb -5.73481 -7.97357
lclavicle 3.57812e-014 -2.06736e-014
lhumerus -45.3877 25.1354 68.5779
lradius 122.73
lwrist 211.414
lhand -7.19115 17.0081
lfingers 7.12502
lthumb 18.687 46.1305
rfemur 37.0531 5.73923 10.9131
rtibia 24.3472
rfoot -12.6448 -2.20867
rtoes -6.35226
lfemur -78.2317 7.33345 -27.2239
ltibia 69.2711
lfoot 7.75235 8.72247
ltoes -14.7079
115
root 3.70715 16.9225 -0.284691 -826.849 -75.1723 778.65
lowerback 49.892 6.50718 -0.400226
upperback 14.4033 3.66638 -9.76328
thorax -4.06834 1.13662 -11.8392
lowerneck 13.6364 7.21894 0.0863371
upperneck 27.5554 5.86081 11.9032
head 5.85852 2.82585 3.83434
rclavicle 9.14409e-015 9.85972e-014
rhumerus -37.6052 8.29123 -93.0184
rradius 71.3485
rwrist -3.54313
rhand -32.7894 21.9511
rfingers 7.12502
rthumb -6.01088 -7.94361
lclavicle 9.14409e-015 9.85972e-014
lhumerus -44.1953 24.1351 69.0707
lradius 123.196
lwrist 211.172
lhand -7.49106 17.3946
lfingers 7.12502
lthumb 18.3985 46.5445
rfemur 35.8855 5.47237 11.0084
rtibia 25.4741
rfoot -13.3457 -2.68091
rtoes -6.72917
lfemur -78.6555 7.2927 -27.7946
ltibia 72.5777
lfoot 10.6035 8.23218
ltoes -13.9915
116
root 3.69528 16.9185 -0.296744 -824.176 -75.1283 776.747
lowerback 48.8527 6.34041 -0.525514
upperback 14.5596 3.55667 -9.69193
thorax -3.77586 1.09792 -11.61
lowerneck 13.8986 7.42847 0.361261
upperneck 27.8456 6.16111 11.643
head 5.92679 2.97228 3.70562
rclavicle -1.59028e-015 -1.90833e-014
rhumerus -37.7636 8.30985 -93.6731
rradius 70.2631
rwrist -2.75218
rhand -33.1455 21.97
rfingers 7.12502
rthumb -6.35466 -7.91464
lclavicle -1.59028e-015 -1.90833e-014
lhumerus -42.9506 23.1257 69.4837
lradius 123.654
lwrist 210.874
lhand -7.89917 17.6266
lfingers 7.12502
lthumb 18.0059 46.8131
rfemur 34.7029 5.20797 11.1451
rtibia 26.4732
rfoot -13.9559 -3.16092
rtoes -7.035
lfemur -78.8065 7.12659 -28.1884
ltibia 75.67
lfoot 13.1371 7.64433
ltoes -14.0152
117
root 3.68193 16.9127 -0.308558 -821.37 -75.0514 774.776
lowerback 46.8609 6.06966 -0.47983
upperback 15.5872 3.46345 -9.59465
thorax -3.45925 1.02377 -11.5335
lowerneck 14.2042 7.64185 0.572095
upperneck 28.0651 6.46713 11.4128
head 5.962 3.115 3.59319
rclavicle -7.27552e-014 1.06549e-013
rhumerus -38.0257 8.42248 -94.3293
rradius 69.2652
rwrist -2.02245
rhand -33.4696 21.966
rfingers 7.12502
rthumb -6.66757 -7.90899
lclavicle -7.27552e-014 1.06549e-013
lhumerus -41.7516 22.1587 69.7858
lradius 124.129
lwrist 210.649
lhand -8.40708 17.7513
lfingers 7.12502
lthumb 17.5171 46.9821
rfemur 33.4644 4.96368 11.2984
rtibia 27.471
rfoot -14.5583 -3.68246
rtoes -7.31357
lfemur -78.8091 6.8984 -28.4879
ltibia 78.5783
lfoot 15.3865 7.15195
ltoes -13.5656
118
root 3.66747 16.9038 -0.319425 -818.43 -74.9558 772.725
lowerback 45.816 5.85717 -0.639844
upperback 15.6004 3.28775 -9.55657
thorax -3.23052 0.95654 -11.2952
lowerneck 14.5617 7.84578 0.772606
upperneck 28.2471 6.76195 11.1939
head 5.97843 3.24941 3.48302
rclavicle -7.79236e-014 9.38264e-014
rhumerus -38.4477 8.55745 -95.0417
rradius 68.3599
rwrist -1.41808
rhand -33.7352 21.9234
rfingers 7.12502
rthumb -6.92396 -7.94339
lclavicle -7.79236e-014 9.38264e-014
lhumerus -40.5779 21.1362 69.9519
lradius 124.587
lwrist 210.488
lhand -8.88468 17.7095
lfingers 7.12502
lthumb 17.0574 46.9806
rfemur 32.155 4.68618 11.4318
rtibia 28.5016
rfoot -15.1908 -4.14052
rtoes -7.59413
lfemur -78.6669 6.59687 -28.7242
ltibia 81.2943
lfoot 17.3273 6.68943
ltoes -12.4539
119
root 3.65215 16.8921 -0.329621 -815.468 -74.8284 770.71
lowerback 44.7346 5.64241 -0.833858
upperback 15.5709 3.1027 -9.51089
thorax -3.03141 0.882709 -11.0283
lowerneck 14.9202 8.05241 0.913764
upperneck 28.4061 7.05544 10.9989
head 5.9843 3.37901 3.38918
rclavicle -3.10104e-014 -4.13472e-014
rhumerus -39.0333 8.71859 -95.7487
rradius 67.5445
rwrist -0.885627
rhand -33.9111 21.8719
rfingers 7.12502
rthumb -7.0938 -7.98925
lclavicle -3.10104e-014 -4.13472e-014
lhumerus -39.4196 20.082 70.0193
lradius 125.014
lwrist 210.42
lhand -9.3077 17.5126
lfingers 7.12502
lthumb 16.6502 46.8184
rfemur 30.7168 4.4173 11.5555
rtibia 29.6512
rfoot -15.8695 -4.56768
rtoes -7.78042
lfemur -78.3924 6.25677 -28.9267
ltibia 83.8342
lfoot 18.8498 6.09847
ltoes -10.8344
120
root 3.63679 16.8758 -0.339357 -812.467 -74.675 768.675
lowerback 43.6407 5.41803 -1.02727
upperback 15.5319 2.90893 -9.4648
thorax -2.82821 0.804309 -10.7601
lowerneck 15.2573 8.23721 1.01052
upperneck 28.5077 7.32192 10.8234
head 5.97302 3.49369 3.30725
rclavicle 3.97569e-014 -4.29375e-014
rhumerus -39.7828 8.84227 -96.4663
rradius 66.877
rwrist -0.489991
rhand -33.9343 21.8442
rfingers 7.12502
rthumb -7.11614 -8.01619
lclavicle 3.97569e-014 -4.29375e-014
lhumerus -38.2163 18.9659 70.011
lradius 125.399
lwrist 210.399
lhand -9.55433 17.21
lfingers 7.12502
lthumb 16.4128 46.5356
rfemur 29.2406 4.11642 11.6428
rtibia 30.8228
rfoot -16.5417 -4.92329
rtoes -7.86172
lfemur -77.9509 5.86907 -29.1018
ltibia 86.2321
lfoot 19.9315 5.36876
ltoes -9.30649
121
root 3.62381 16.857 -0.347947 -809.443 -74.5047 766.698
lowerback 42.4651 5.16861 -1.22072
upperback 15.4731 2.69373 -9.43276
thorax -2.61444 0.716602 -10.4997
lowerneck 15.5375 8.42146 1.08136
upperneck 28.5903 7.58847 10.6533
head 5.96273 3.60868 3.23206
rclavicle -2.50469e-014 9.54166e-015
rhumerus -40.6242 9.00601 -97.2134
rradius 66.2701
rwrist -0.217137
rhand -33.9023 21.6983
rfingers 7.12502
rthumb -7.08524 -8.16312
lclavicle -2.50469e-014 9.54166e-015
lhumerus -37.0105 17.8624 69.8782
lradius 125.741
lwrist 210.454
lhand -9.73388 16.8979
lfingers 7.12502
lthumb 16.2399 46.2377
rfemur 27.6608 3.81045 11.7274
rtibia 31.984
rfoot -17.1865 -5.26242
rtoes -7.86875
lfemur -77.4259 5.46198 -29.2812
ltibia 88.5256
lfoot 20.5714 4.55563
ltoes -9.05532
122
root 3.62105 16.8516 -0.357979 -806.519 -74.3194 764.837
lowerback 41.3003 4.9192 -1.40785
upperback 15.3928 2.48076 -9.39755
thorax -2.41198 0.629363 -10.2438
lowerneck 15.7012 8.58738 1.10942
upperneck 28.6874 7.8242 10.5044
head 5.97232 3.711 3.17518
rclavicle 5.64548e-014 -2.22639e-014
rhumerus -41.5719 9.19584 -97.9461
rradius 65.705
rwrist -0.0637296
rhand -33.8072 21.6216
rfingers 7.12502
rthumb -6.9935 -8.24283
lclavicle 5.64548e-014 -2.22639e-014
lhumerus -35.7817 16.7771 69.7177
lradius 126.02
lwrist 210.536
lhand -9.89939 16.642
lfingers 7.12502
lthumb 16.0805 45.9948
rfemur 26.049 3.54473 11.8329
rtibia 33.1085
rfoot -17.7826 -5.60976
rtoes -7.79097
lfemur -76.5462 5.02774 -29.4684
ltibia 90.586
lfoot 20.7818 3.67547
ltoes -9.9926
123
root 3.62278 16.8497 -0.367549 -803.658 -74.1316 763.1
lowerback 40.0195 4.64853 -1.56511
upperback 15.3783 2.26561 -9.38828
thorax -2.24807 0.536737 -9.99284
lowerneck 15.7534 8.75606 1.09691
upperneck 28.8152 8.05532 10.3766
head 6.00512 3.81278 3.13657
rclavicle -1.86858e-014 -5.725e-014
rhumerus -42.5998 9.42304 -98.6955
rradius 65.1227
rwrist -0.0049539
rhand -33.6825 21.6212
rfingers 7.12502
rthumb -6.87305 -8.24723
lclavicle -1.86858e-014 -5.725e-014
lhumerus -34.5658 15.7217 69.4867
lradius 126.263
lwrist 210.599
lhand -10.018 16.4754
lfingers 7.12502
lthumb 15.9663 45.8374
rfemur 24.3583 3.32524 11.9762
rtibia 34.223
rfoot -18.3891 -5.98763
rtoes -7.72917
lfemur -75.4481 4.58211 -29.6619
ltibia 92.4173
lfoot 20.5469 2.68959
ltoes -12.0398
